<svg viewBox="-1500 -20 3410 260" xmlns="http://www.w3.org/2000/svg" >
	<line stroke-width="5.000" x1="405.000" x2="375.000" y1="-129.904" y2="-129.904" fill="none" stroke="#665782" />
	<line stroke="#665782" stroke-width="5.000" x1="420.000" x2="405.000" y1="-103.923" y2="-129.904" fill="none" />
	<line y1="-103.923" y2="-103.923" fill="none" stroke="#665782" stroke-width="5.000" x1="300.000" x2="330.000" />
	<line stroke-width="5.000" x1="315.000" x2="300.000" y1="-77.942" y2="-103.923" fill="none" stroke="#665782" />
	<line fill="none" stroke="#665782" stroke-width="5.000" x1="300.000" x2="315.000" y1="-51.962" y2="-77.942" />
	<line x1="285.000" x2="300.000" y1="-77.942" y2="-51.962" fill="none" stroke="#665782" stroke-width="5.000" />
	<line x1="270.000" x2="285.000" y1="-103.923" y2="-77.942" fill="none" stroke="#665782" stroke-width="5.000" />
	<line x1="255.000" x2="270.000" y1="-77.942" y2="-103.923" fill="none" stroke="#665782" stroke-width="5.000" />
	<line y1="-51.962" y2="-77.942" fill="none" stroke="#665782" stroke-width="5.000" x1="270.000" x2="255.000" />
	<line x1="330.000" x2="360.000" y1="-103.923" y2="-103.923" fill="none" stroke="#665782" stroke-width="5.000" />
	<line y1="-129.904" y2="-129.904" fill="none" stroke="#665782" stroke-width="5.000" x1="345.000" x2="315.000" />
	<line stroke-width="5.000" x1="360.000" x2="390.000" y1="-103.923" y2="-103.923" fill="none" stroke="#665782" />
	<line stroke="#665782" stroke-width="5.000" x1="375.000" x2="345.000" y1="-129.904" y2="-129.904" fill="none" />
	<line fill="none" stroke="#665782" stroke-width="5.000" x1="390.000" x2="420.000" y1="-103.923" y2="-103.923" />
	<line fill="none" stroke="#b8ed8e" stroke-width="5.000" x1="240.000" x2="270.000" y1="-51.962" y2="-51.962" />
	<line stroke="#b8ed8e" stroke-width="5.000" x1="225.000" x2="240.000" y1="-77.942" y2="-51.962" fill="none" />
	<line fill="none" stroke="#b8ed8e" stroke-width="5.000" x1="240.000" x2="225.000" y1="-103.923" y2="-77.942" />
	<line y1="-103.923" y2="-103.923" fill="none" stroke="#90d1c2" stroke-width="1.500" x1="240.000" x2="270.000" />
	<line y2="-77.942" fill="none" stroke="#90d1c2" stroke-width="1.500" x1="240.000" x2="255.000" y1="-103.923" />
	<line x1="210.000" x2="240.000" y1="-103.923" y2="-103.923" fill="none" stroke="#b8ed8e" stroke-width="5.000" />
	<line y2="-103.923" fill="none" stroke="#b8ed8e" stroke-width="5.000" x1="195.000" x2="210.000" y1="-77.942" />
	<line stroke="#b8ed8e" stroke-width="5.000" x1="210.000" x2="195.000" y1="-51.962" y2="-77.942" fill="none" />
	<line y1="-51.962" y2="-51.962" fill="none" stroke="#90d1c2" stroke-width="1.500" x1="210.000" x2="240.000" />
	<line fill="none" stroke="#b8ed8e" stroke-width="5.000" x1="180.000" x2="210.000" y1="-51.962" y2="-51.962" />
	<line y1="-77.942" y2="-51.962" fill="none" stroke="#b8ed8e" stroke-width="5.000" x1="165.000" x2="180.000" />
	<line x1="165.000" x2="195.000" y1="-77.942" y2="-77.942" fill="none" stroke="#90d1c2" stroke-width="1.500" />
	<line stroke-width="5.000" x1="180.000" x2="165.000" y1="-103.923" y2="-77.942" fill="none" stroke="#b8ed8e" />
	<line x1="180.000" x2="210.000" y1="-103.923" y2="-103.923" fill="none" stroke="#90d1c2" stroke-width="1.500" />
	<line x2="195.000" y1="-103.923" y2="-77.942" fill="none" stroke="#90d1c2" stroke-width="1.500" x1="180.000" />
	<line y1="-103.923" y2="-103.923" fill="none" stroke="#b8ed8e" stroke-width="5.000" x1="150.000" x2="180.000" />
	<line stroke="#b8ed8e" stroke-width="5.000" x1="135.000" x2="150.000" y1="-77.942" y2="-103.923" fill="none" />
	<line x2="165.000" y1="-77.942" y2="-77.942" fill="none" stroke="#90d1c2" stroke-width="1.500" x1="135.000" />
	<line y2="-77.942" fill="none" stroke="#b8ed8e" stroke-width="5.000" x1="150.000" x2="135.000" y1="-51.962" />
	<line x1="150.000" x2="165.000" y1="-51.962" y2="-77.942" fill="none" stroke="#90d1c2" stroke-width="1.500" />
	<line x2="180.000" y1="-51.962" y2="-51.962" fill="none" stroke="#90d1c2" stroke-width="1.500" x1="150.000" />
	<line fill="none" stroke="#b8ed8e" stroke-width="5.000" x1="120.000" x2="150.000" y1="-51.962" y2="-51.962" />
	<line x2="120.000" y1="-77.942" y2="-51.962" fill="none" stroke="#b8ed8e" stroke-width="5.000" x1="105.000" />
	<line stroke-width="1.500" x1="105.000" x2="135.000" y1="-77.942" y2="-77.942" fill="none" stroke="#90d1c2" />
	<line x1="120.000" x2="105.000" y1="-103.923" y2="-77.942" fill="none" stroke="#b8ed8e" stroke-width="5.000" />
	<line x1="120.000" x2="150.000" y1="-103.923" y2="-103.923" fill="none" stroke="#90d1c2" stroke-width="1.500" />
	<line x2="135.000" y1="-103.923" y2="-77.942" fill="none" stroke="#90d1c2" stroke-width="1.500" x1="120.000" />
	<line stroke-width="5.000" x1="90.000" x2="120.000" y1="-103.923" y2="-103.923" fill="none" stroke="#b8ed8e" />
	<line y1="-77.942" y2="-103.923" fill="none" stroke="#b8ed8e" stroke-width="5.000" x1="75.000" x2="90.000" />
	<line stroke-width="5.000" x1="90.000" x2="75.000" y1="-51.962" y2="-77.942" fill="none" stroke="#b8ed8e" />
	<line stroke-width="1.500" x1="90.000" x2="105.000" y1="-51.962" y2="-77.942" fill="none" stroke="#90d1c2" />
	<line stroke="#90d1c2" stroke-width="1.500" x1="90.000" x2="120.000" y1="-51.962" y2="-51.962" fill="none" />
	<line x2="90.000" y1="-51.962" y2="-51.962" fill="none" stroke="#b8ed8e" stroke-width="5.000" x1="60.000" />
	<line x1="45.000" x2="60.000" y1="-77.942" y2="-51.962" fill="none" stroke="#b8ed8e" stroke-width="5.000" />
	<line x1="45.000" x2="75.000" y1="-77.942" y2="-77.942" fill="none" stroke="#90d1c2" stroke-width="1.500" />
	<line stroke-width="5.000" x1="60.000" x2="45.000" y1="-103.923" y2="-77.942" fill="none" stroke="#b8ed8e" />
	<line y2="-103.923" fill="none" stroke="#90d1c2" stroke-width="1.500" x1="60.000" x2="90.000" y1="-103.923" />
	<line x1="60.000" x2="75.000" y1="-103.923" y2="-77.942" fill="none" stroke="#90d1c2" stroke-width="1.500" />
	<line y1="-103.923" y2="-103.923" fill="none" stroke="#b8ed8e" stroke-width="5.000" x1="30.000" x2="60.000" />
	<line x1="15.000" x2="30.000" y1="-77.942" y2="-103.923" fill="none" stroke="#b8ed8e" stroke-width="5.000" />
	<line x1="15.000" x2="45.000" y1="-77.942" y2="-77.942" fill="none" stroke="#90d1c2" stroke-width="1.500" />
	<line stroke="#b8ed8e" stroke-width="5.000" x1="30.000" x2="15.000" y1="-51.962" y2="-77.942" fill="none" />
	<line x1="30.000" x2="45.000" y1="-51.962" y2="-77.942" fill="none" stroke="#90d1c2" stroke-width="1.500" />
	<line y2="-51.962" fill="none" stroke="#90d1c2" stroke-width="1.500" x1="30.000" x2="60.000" y1="-51.962" />
	<line stroke="#b8ed8e" stroke-width="5.000" x1="0.000" x2="30.000" y1="-51.962" y2="-51.962" fill="none" />
	<line y2="-51.962" fill="none" stroke="#b8ed8e" stroke-width="5.000" x1="-15.000" x2="0.000" y1="-77.942" />
	<line stroke="#90d1c2" stroke-width="1.500" x1="-15.000" x2="15.000" y1="-77.942" y2="-77.942" fill="none" />
	<line y2="-77.942" fill="none" stroke="#b8ed8e" stroke-width="5.000" x1="0.000" x2="-15.000" y1="-103.923" />
	<line x1="0.000" x2="30.000" y1="-103.923" y2="-103.923" fill="none" stroke="#90d1c2" stroke-width="1.500" />
	<line fill="none" stroke="#90d1c2" stroke-width="1.500" x1="0.000" x2="15.000" y1="-103.923" y2="-77.942" />
	<line stroke-width="5.000" x1="-30.000" x2="0.000" y1="-103.923" y2="-103.923" fill="none" stroke="#b8ed8e" />
	<line x1="-45.000" x2="-30.000" y1="-77.942" y2="-103.923" fill="none" stroke="#b8ed8e" stroke-width="5.000" />
	<line y2="-77.942" fill="none" stroke="#90d1c2" stroke-width="1.500" x1="-45.000" x2="-15.000" y1="-77.942" />
	<line x2="-45.000" y1="-51.962" y2="-77.942" fill="none" stroke="#b8ed8e" stroke-width="5.000" x1="-30.000" />
	<line fill="none" stroke="#90d1c2" stroke-width="1.500" x1="-30.000" x2="-15.000" y1="-51.962" y2="-77.942" />
	<line stroke-width="1.500" x1="-30.000" x2="0.000" y1="-51.962" y2="-51.962" fill="none" stroke="#90d1c2" />
	<line y2="-51.962" fill="none" stroke="#000000" stroke-width="2.000" x1="-15.000" x2="-30.000" y1="-25.981" />
	<line stroke-width="1.500" x1="-15.000" x2="0.000" y1="-25.981" y2="-51.962" fill="none" stroke="#90d1c2" />
	<line stroke="#ff9393" stroke-width="1.000" x1="1.033" x2="-13.967" y1="-0.159" y2="-26.140" fill="none" />
	<line fill="none" stroke="#ff9393" stroke-width="1.000" x1="31.033" x2="1.033" y1="-0.159" y2="-0.159" />
	<line y1="-2.993" y2="-28.973" fill="none" stroke="#ff93c9" stroke-width="1.000" x1="1.419" x2="-13.581" />
	<line stroke="#ff93c9" stroke-width="1.000" x1="16.419" x2="1.419" y1="22.988" y2="-2.993" fill="none" />
	<line stroke-width="1.000" x1="-0.515" x2="-15.515" y1="3.737" y2="-22.243" fill="none" stroke="#ff93ff" />
	<line x1="-15.515" x2="-0.515" y1="29.718" y2="3.737" fill="none" stroke="#ff93ff" stroke-width="1.000" />
	<line y2="-27.328" fill="none" stroke="#c993ff" stroke-width="1.000" x1="-36.493" x2="-21.493" y1="-1.347" />
	<line stroke="#c993ff" stroke-width="1.000" x1="-21.493" x2="-36.493" y1="24.633" y2="-1.347" fill="none" />
	<line x2="-12.157" y1="-5.124" y2="-31.105" fill="none" stroke="#9393ff" stroke-width="1.000" x1="-27.157" />
	<line x1="-57.157" x2="-27.157" y1="-5.124" y2="-5.124" fill="none" stroke="#9393ff" stroke-width="1.000" />
	<line y2="-20.477" fill="none" stroke="#93c9ff" stroke-width="1.000" x1="-30.408" x2="-15.408" y1="5.504" />
	<line y2="5.504" fill="none" stroke="#93c9ff" stroke-width="1.000" x1="-45.408" x2="-30.408" y1="31.484" />
	<circle fill="#ffffff" stroke="#b8ed8e" stroke-width="2.000" cx="-30.000" cy="-51.962" r="10.000" />
	<text x="-30.000" y="-48.462" text-anchor="middle" font-family="Super Sans" font-size="8.00" fill="#000000" >
		30
	</text>
	<circle cx="1.033" cy="-0.159" r="2.000" fill="#ff9393" />
	<circle fill="#ffffff" stroke="#665782" stroke-width="2.000" cx="270.000" cy="-103.923" r="10.000" />
	<text fill="#000000" x="270.000" y="-100.423" text-anchor="middle" font-family="Super Sans" font-size="8.00" >
		130
	</text>
	<circle cx="330.000" cy="-103.923" r="10.000" fill="#ffffff" stroke="#665782" stroke-width="2.000" />
	<text fill="#000000" x="330.000" y="-100.423" text-anchor="middle" font-family="Super Sans" font-size="8.00" >
		125
	</text>
	<circle stroke="#b8ed8e" stroke-width="2.000" cx="165.000" cy="-77.942" r="10.000" fill="#ffffff" />
	<text text-anchor="middle" font-family="Super Sans" font-size="8.00" fill="#000000" x="165.000" y="-74.442" >
		8
	</text>
	<circle r="10.000" fill="#ffffff" stroke="#b8ed8e" stroke-width="2.000" cx="150.000" cy="-51.962" />
	<text x="150.000" y="-48.462" text-anchor="middle" font-family="Super Sans" font-size="8.00" fill="#000000" >
		12
	</text>
	<circle stroke="#665782" stroke-width="2.000" cx="270.000" cy="-51.962" r="10.000" fill="#ffffff" />
	<text y="-48.462" text-anchor="middle" font-family="Super Sans" font-size="8.00" fill="#000000" x="270.000" >
		132
	</text>
	<circle stroke="#b8ed8e" stroke-width="2.000" cx="120.000" cy="-103.923" r="10.000" fill="#ffffff" />
	<text x="120.000" y="-100.423" text-anchor="middle" font-family="Super Sans" font-size="8.00" fill="#000000" >
		15
	</text>
	<circle cx="0.000" cy="-51.962" r="10.000" fill="#ffffff" stroke="#b8ed8e" stroke-width="2.000" />
	<text text-anchor="middle" font-family="Super Sans" font-size="8.00" fill="#000000" x="0.000" y="-48.462" >
		25
	</text>
	<circle r="2.000" fill="#ff93c9" cx="1.419" cy="-2.993" />
	<circle cx="-0.515" cy="3.737" r="2.000" fill="#ff93ff" />
	<circle fill="#ffffff" stroke="#b8ed8e" stroke-width="2.000" cx="180.000" cy="-51.962" r="10.000" />
	<text text-anchor="middle" font-family="Super Sans" font-size="8.00" fill="#000000" x="180.000" y="-48.462" >
		7
	</text>
	<circle cx="60.000" cy="-103.923" r="10.000" fill="#ffffff" stroke="#b8ed8e" stroke-width="2.000" />
	<text y="-100.423" text-anchor="middle" font-family="Super Sans" font-size="8.00" fill="#000000" x="60.000" >
		21
	</text>
	<circle fill="#ffffff" stroke="#b8ed8e" stroke-width="2.000" cx="-30.000" cy="-103.923" r="10.000" />
	<text y="-100.423" text-anchor="middle" font-family="Super Sans" font-size="8.00" fill="#000000" x="-30.000" >
		28
	</text>
	<circle cy="22.988" r="2.000" fill="#ff93c9" cx="16.419" />
	<circle cx="-12.157" cy="-31.105" r="2.000" fill="#9393ff" />
	<circle cy="-103.923" r="10.000" fill="#ffffff" stroke="#b8ed8e" stroke-width="2.000" cx="240.000" />
	<text x="240.000" y="-100.423" text-anchor="middle" font-family="Super Sans" font-size="8.00" fill="#000000" >
		3
	</text>
	<circle stroke="#b8ed8e" stroke-width="2.000" cx="195.000" cy="-77.942" r="10.000" fill="#ffffff" />
	<text y="-74.442" text-anchor="middle" font-family="Super Sans" font-size="8.00" fill="#000000" x="195.000" >
		5
	</text>
	<circle cx="210.000" cy="-51.962" r="10.000" fill="#ffffff" stroke="#b8ed8e" stroke-width="2.000" />
	<text x="210.000" y="-48.462" text-anchor="middle" font-family="Super Sans" font-size="8.00" fill="#000000" >
		6
	</text>
	<circle cx="180.000" cy="-103.923" r="10.000" fill="#ffffff" stroke="#b8ed8e" stroke-width="2.000" />
	<text fill="#000000" x="180.000" y="-100.423" text-anchor="middle" font-family="Super Sans" font-size="8.00" >
		9
	</text>
	<circle cx="90.000" cy="-51.962" r="10.000" fill="#ffffff" stroke="#b8ed8e" stroke-width="2.000" />
	<text font-size="8.00" fill="#000000" x="90.000" y="-48.462" text-anchor="middle" font-family="Super Sans" >
		18
	</text>
	<circle cx="30.000" cy="-103.923" r="10.000" fill="#ffffff" stroke="#b8ed8e" stroke-width="2.000" />
	<text y="-100.423" text-anchor="middle" font-family="Super Sans" font-size="8.00" fill="#000000" x="30.000" >
		22
	</text>
	<circle fill="#ffffff" stroke="#665782" stroke-width="2.000" cx="255.000" cy="-77.942" r="10.000" />
	<text font-family="Super Sans" font-size="8.00" fill="#000000" x="255.000" y="-74.442" text-anchor="middle" >
		131
	</text>
	<circle cx="60.000" cy="-51.962" r="10.000" fill="#ffffff" stroke="#b8ed8e" stroke-width="2.000" />
	<text x="60.000" y="-48.462" text-anchor="middle" font-family="Super Sans" font-size="8.00" fill="#000000" >
		19
	</text>
	<circle stroke="#665782" stroke-width="2.000" cx="300.000" cy="-51.962" r="10.000" fill="#ffffff" />
	<text x="300.000" y="-48.462" text-anchor="middle" font-family="Super Sans" font-size="8.00" fill="#000000" >
		128
	</text>
	<circle cx="135.000" cy="-77.942" r="10.000" fill="#ffffff" stroke="#b8ed8e" stroke-width="2.000" />
	<text x="135.000" y="-74.442" text-anchor="middle" font-family="Super Sans" font-size="8.00" fill="#000000" >
		11
	</text>
	<circle stroke="#b8ed8e" stroke-width="2.000" cx="75.000" cy="-77.942" r="10.000" fill="#ffffff" />
	<text x="75.000" y="-74.442" text-anchor="middle" font-family="Super Sans" font-size="8.00" fill="#000000" >
		17
	</text>
	<circle stroke="#b8ed8e" stroke-width="2.000" cx="240.000" cy="-51.962" r="10.000" fill="#ffffff" />
	<text font-size="8.00" fill="#000000" x="240.000" y="-48.462" text-anchor="middle" font-family="Super Sans" >
		1
	</text>
	<circle cx="-15.408" cy="-20.477" r="2.000" fill="#93c9ff" />
	<circle cy="-103.923" r="10.000" fill="#ffffff" stroke="#665782" stroke-width="2.000" cx="360.000" />
	<text x="360.000" y="-100.423" text-anchor="middle" font-family="Super Sans" font-size="8.00" fill="#000000" >
		124
	</text>
	<circle cy="-51.962" r="10.000" fill="#ffffff" stroke="#b8ed8e" stroke-width="2.000" cx="120.000" />
	<text fill="#000000" x="120.000" y="-48.462" text-anchor="middle" font-family="Super Sans" font-size="8.00" >
		13
	</text>
	<circle cx="45.000" cy="-77.942" r="10.000" fill="#ffffff" stroke="#b8ed8e" stroke-width="2.000" />
	<text text-anchor="middle" font-family="Super Sans" font-size="8.00" fill="#000000" x="45.000" y="-74.442" >
		20
	</text>
	<circle cy="-51.962" r="10.000" fill="#ffffff" stroke="#b8ed8e" stroke-width="2.000" cx="30.000" />
	<text x="30.000" y="-48.462" text-anchor="middle" font-family="Super Sans" font-size="8.00" fill="#000000" >
		24
	</text>
	<circle fill="#ffffff" stroke="#b8ed8e" stroke-width="2.000" cx="-15.000" cy="-77.942" r="10.000" />
	<text x="-15.000" y="-74.442" text-anchor="middle" font-family="Super Sans" font-size="8.00" fill="#000000" >
		26
	</text>
	<circle cx="-15.515" cy="29.718" r="2.000" fill="#ff93ff" />
	<circle stroke-width="2.000" cx="210.000" cy="-103.923" r="10.000" fill="#ffffff" stroke="#b8ed8e" />
	<text x="210.000" y="-100.423" text-anchor="middle" font-family="Super Sans" font-size="8.00" fill="#000000" >
		4
	</text>
	<circle cx="420.000" cy="-103.923" r="10.000" fill="#ffffff" stroke="#665782" stroke-width="2.000" />
	<text x="420.000" y="-100.423" text-anchor="middle" font-family="Super Sans" font-size="8.00" fill="#000000" >
		122
	</text>
	<circle cx="300.000" cy="-103.923" r="10.000" fill="#ffffff" stroke="#665782" stroke-width="2.000" />
	<text font-size="8.00" fill="#000000" x="300.000" y="-100.423" text-anchor="middle" font-family="Super Sans" >
		126
	</text>
	<circle cy="-129.904" r="10.000" fill="#ffffff" stroke="#665782" stroke-width="2.000" cx="315.000" />
	<text x="315.000" y="-126.404" text-anchor="middle" font-family="Super Sans" font-size="8.00" fill="#000000" >
		97
	</text>
	<circle stroke="#665782" stroke-width="2.000" cx="405.000" cy="-129.904" r="10.000" fill="#ffffff" />
	<text x="405.000" y="-126.404" text-anchor="middle" font-family="Super Sans" font-size="8.00" fill="#000000" >
		120
	</text>
	<circle r="2.000" fill="#c993ff" cx="-21.493" cy="-27.328" />
	<circle cy="24.633" r="2.000" fill="#c993ff" cx="-21.493" />
	<circle r="2.000" fill="#9393ff" cx="-27.157" cy="-5.124" />
	<circle fill="#9393ff" cx="-57.157" cy="-5.124" r="2.000" />
	<circle fill="#ffffff" stroke="#b8ed8e" stroke-width="2.000" cx="150.000" cy="-103.923" r="10.000" />
	<text text-anchor="middle" font-family="Super Sans" font-size="8.00" fill="#000000" x="150.000" y="-100.423" >
		10
	</text>
	<circle cy="-77.942" r="10.000" fill="#ffffff" stroke="#b8ed8e" stroke-width="2.000" cx="105.000" />
	<text font-family="Super Sans" font-size="8.00" fill="#000000" x="105.000" y="-74.442" text-anchor="middle" >
		14
	</text>
	<circle stroke="#b8ed8e" stroke-width="2.000" cx="90.000" cy="-103.923" r="10.000" fill="#ffffff" />
	<text x="90.000" y="-100.423" text-anchor="middle" font-family="Super Sans" font-size="8.00" fill="#000000" >
		16
	</text>
	<circle stroke="#b8ed8e" stroke-width="2.000" cx="0.000" cy="-103.923" r="10.000" fill="#ffffff" />
	<text text-anchor="middle" font-family="Super Sans" font-size="8.00" fill="#000000" x="0.000" y="-100.423" >
		27
	</text>
	<circle cx="-15.000" cy="-25.981" r="10.000" fill="#ffffff" stroke="#000000" stroke-width="2.000" />
	<text x="-15.000" y="-22.481" text-anchor="middle" font-family="Super Sans" font-size="8.00" fill="#000000" >
		30
	</text>
	<circle cx="-36.493" cy="-1.347" r="2.000" fill="#c993ff" />
	<circle cx="-45.408" cy="31.484" r="2.000" fill="#93c9ff" />
	<circle cx="285.000" cy="-77.942" r="10.000" fill="#ffffff" stroke="#665782" stroke-width="2.000" />
	<text text-anchor="middle" font-family="Super Sans" font-size="8.00" fill="#000000" x="285.000" y="-74.442" >
		129
	</text>
	<circle stroke="#665782" stroke-width="2.000" cx="390.000" cy="-103.923" r="10.000" fill="#ffffff" />
	<text x="390.000" y="-100.423" text-anchor="middle" font-family="Super Sans" font-size="8.00" fill="#000000" >
		123
	</text>
	<circle cy="-77.942" r="10.000" fill="#ffffff" stroke="#b8ed8e" stroke-width="2.000" cx="-45.000" />
	<text x="-45.000" y="-74.442" text-anchor="middle" font-family="Super Sans" font-size="8.00" fill="#000000" >
		29
	</text>
	<circle cx="345.000" cy="-129.904" r="10.000" fill="#ffffff" stroke="#665782" stroke-width="2.000" />
	<text text-anchor="middle" font-family="Super Sans" font-size="8.00" fill="#000000" x="345.000" y="-126.404" >
		108
	</text>
	<circle r="2.000" fill="#ff93ff" cx="-15.515" cy="-22.243" />
	<circle stroke-width="2.000" cx="15.000" cy="-77.942" r="10.000" fill="#ffffff" stroke="#b8ed8e" />
	<text x="15.000" y="-74.442" text-anchor="middle" font-family="Super Sans" font-size="8.00" fill="#000000" >
		23
	</text>
	<circle fill="#ff9393" cx="-13.967" cy="-26.140" r="2.000" />
	<circle cx="-13.581" cy="-28.973" r="2.000" fill="#ff93c9" />
	<circle cx="-30.408" cy="5.504" r="2.000" fill="#93c9ff" />
	<circle r="10.000" fill="#ffffff" stroke="#665782" stroke-width="2.000" cx="375.000" cy="-129.904" />
	<text x="375.000" y="-126.404" text-anchor="middle" font-family="Super Sans" font-size="8.00" fill="#000000" >
		109
	</text>
	<circle cx="225.000" cy="-77.942" r="10.000" fill="#ffffff" stroke="#b8ed8e" stroke-width="2.000" />
	<text font-size="8.00" fill="#000000" x="225.000" y="-74.442" text-anchor="middle" font-family="Super Sans" >
		2
	</text>
	<circle fill="#ff9393" cx="31.033" cy="-0.159" r="2.000" />
	<circle stroke-width="2.000" cx="315.000" cy="-77.942" r="10.000" fill="#ffffff" stroke="#665782" />
	<text font-size="8.00" fill="#000000" x="315.000" y="-74.442" text-anchor="middle" font-family="Super Sans" >
		127
	</text>
</svg>
