<svg xmlns="http://www.w3.org/2000/svg" viewBox="-1500 -20 3410 260" >
	<line x2="120.000" y1="-51.962" y2="-51.962" fill="none" stroke="#665782" stroke-width="5.000" x1="90.000" />
	<line x1="105.000" x2="75.000" y1="-77.942" y2="-77.942" fill="none" stroke="#665782" stroke-width="5.000" />
	<line x1="120.000" x2="150.000" y1="-51.962" y2="-51.962" fill="none" stroke="#665782" stroke-width="5.000" />
	<line fill="none" stroke="#665782" stroke-width="5.000" x1="150.000" x2="180.000" y1="-51.962" y2="-51.962" />
	<line stroke-width="5.000" x1="135.000" x2="105.000" y1="-77.942" y2="-77.942" fill="none" stroke="#665782" />
	<line stroke="#665782" stroke-width="5.000" x1="165.000" x2="135.000" y1="-77.942" y2="-77.942" fill="none" />
	<line x1="180.000" x2="165.000" y1="-51.962" y2="-77.942" fill="none" stroke="#665782" stroke-width="5.000" />
	<line stroke-width="5.000" x1="75.000" x2="60.000" y1="-25.981" y2="-51.962" fill="none" stroke="#665782" />
	<line y2="-51.962" fill="none" stroke="#665782" stroke-width="5.000" x1="60.000" x2="90.000" y1="-51.962" />
	<line stroke-width="5.000" x1="60.000" x2="75.000" y1="0.000" y2="-25.981" fill="none" stroke="#665782" />
	<line stroke-width="5.000" x1="45.000" x2="60.000" y1="-25.981" y2="0.000" fill="none" stroke="#665782" />
	<line stroke="#665782" stroke-width="5.000" x1="30.000" x2="45.000" y1="-51.962" y2="-25.981" fill="none" />
	<line y2="-51.962" fill="none" stroke="#665782" stroke-width="5.000" x1="15.000" x2="30.000" y1="-25.981" />
	<line fill="none" stroke="#665782" stroke-width="5.000" x1="30.000" x2="15.000" y1="0.000" y2="-25.981" />
	<line stroke-width="5.000" x1="0.000" x2="30.000" y1="0.000" y2="0.000" fill="none" stroke="#b8ed8e" />
	<line y1="26.005" y2="0.024" fill="none" stroke="#ff9393" stroke-width="1.000" x1="14.942" x2="-0.058" />
	<line stroke-width="1.000" x1="44.942" x2="14.942" y1="26.005" y2="26.005" fill="none" stroke="#ff9393" />
	<line stroke="#ff9393" stroke-width="1.000" x1="59.942" x2="44.942" y1="0.024" y2="26.005" fill="none" />
	<line x2="-0.341" y1="22.955" y2="-3.026" fill="none" stroke="#ff93c9" stroke-width="1.000" x1="14.659" />
	<line stroke-width="1.000" x1="44.659" x2="14.659" y1="22.955" y2="22.955" fill="none" stroke="#ff93c9" />
	<line y1="22.955" y2="22.955" fill="none" stroke="#ff93c9" stroke-width="1.000" x1="74.659" x2="44.659" />
	<line stroke="#ff93ff" stroke-width="1.000" x1="16.181" x2="1.181" y1="27.837" y2="1.856" fill="none" />
	<line stroke-width="1.000" x1="46.181" x2="16.181" y1="27.837" y2="27.837" fill="none" stroke="#ff93ff" />
	<line x2="46.181" y1="53.817" y2="27.837" fill="none" stroke="#ff93ff" stroke-width="1.000" x1="61.181" />
	<line stroke-width="1.000" x1="16.410" x2="1.410" y1="33.880" y2="7.900" fill="none" stroke="#c993ff" />
	<line y2="33.880" fill="none" stroke="#c993ff" stroke-width="1.000" x1="46.410" x2="16.410" y1="33.880" />
	<line x1="31.410" x2="46.410" y1="59.861" y2="33.880" fill="none" stroke="#c993ff" stroke-width="1.000" />
	<line stroke="#9393ff" stroke-width="1.000" x1="15.169" x2="0.169" y1="25.878" y2="-0.103" fill="none" />
	<line x1="30.169" x2="15.169" y1="51.858" y2="25.878" fill="none" stroke="#9393ff" stroke-width="1.000" />
	<line stroke="#9393ff" stroke-width="1.000" x1="45.169" x2="30.169" y1="25.878" y2="51.858" fill="none" />
	<line y2="-2.517" fill="none" stroke="#93c9ff" stroke-width="1.000" x1="11.796" x2="-3.204" y1="23.464" />
	<line y2="23.464" fill="none" stroke="#93c9ff" stroke-width="1.000" x1="26.796" x2="11.796" y1="49.445" />
	<line x1="56.796" x2="26.796" y1="49.445" y2="49.445" fill="none" stroke="#93c9ff" stroke-width="1.000" />
	<line x1="17.727" x2="2.727" y1="24.122" y2="-1.859" fill="none" stroke="#93ffff" stroke-width="1.000" />
	<line fill="none" stroke="#93ffff" stroke-width="1.000" x1="32.727" x2="17.727" y1="50.103" y2="24.122" />
	<line y2="50.103" fill="none" stroke="#93ffff" stroke-width="1.000" x1="47.727" x2="32.727" y1="76.083" />
	<line x1="19.185" x2="4.185" y1="30.878" y2="4.897" fill="none" stroke="#93ffc9" stroke-width="1.000" />
	<line y2="30.878" fill="none" stroke="#93ffc9" stroke-width="1.000" x1="34.185" x2="19.185" y1="56.859" />
	<line x1="4.185" x2="34.185" y1="56.859" y2="56.859" fill="none" stroke="#93ffc9" stroke-width="1.000" />
	<line fill="none" stroke="#93ff93" stroke-width="1.000" x1="19.872" x2="4.872" y1="20.126" y2="-5.854" />
	<line x1="34.872" x2="19.872" y1="46.107" y2="20.126" fill="none" stroke="#93ff93" stroke-width="1.000" />
	<line y2="46.107" fill="none" stroke="#93ff93" stroke-width="1.000" x1="19.872" x2="34.872" y1="72.088" />
	<line y1="32.190" y2="6.209" fill="none" stroke="#c9ff93" stroke-width="1.000" x1="13.363" x2="-1.637" />
	<line fill="none" stroke="#c9ff93" stroke-width="1.000" x1="-16.637" x2="13.363" y1="32.190" y2="32.190" />
	<line fill="none" stroke="#c9ff93" stroke-width="1.000" x1="-1.637" x2="-16.637" y1="58.171" y2="32.190" />
	<line y2="-7.309" fill="none" stroke="#ffff93" stroke-width="1.000" x1="19.767" x2="4.767" y1="18.672" />
	<line x1="-10.233" x2="19.767" y1="18.672" y2="18.672" fill="none" stroke="#ffff93" stroke-width="1.000" />
	<line x1="-40.233" x2="-10.233" y1="18.672" y2="18.672" fill="none" stroke="#ffff93" stroke-width="1.000" />
	<line x1="12.905" x2="-2.095" y1="29.219" y2="3.238" fill="none" stroke="#ffc993" stroke-width="1.000" />
	<line fill="none" stroke="#ffc993" stroke-width="1.000" x1="-17.095" x2="12.905" y1="29.219" y2="29.219" />
	<line y1="55.199" y2="29.219" fill="none" stroke="#ffc993" stroke-width="1.000" x1="-32.095" x2="-17.095" />
	<line y1="27.098" y2="1.117" fill="none" stroke="#ff2828" stroke-width="1.000" x1="13.443" x2="-1.557" />
	<line y2="27.098" fill="none" stroke="#ff2828" stroke-width="1.000" x1="-1.557" x2="13.443" y1="53.079" />
	<line x2="-1.557" y1="53.079" y2="53.079" fill="none" stroke="#ff2828" stroke-width="1.000" x1="28.443" />
	<line x1="18.065" x2="3.065" y1="28.216" y2="2.235" fill="none" stroke="#ff2893" stroke-width="1.000" />
	<line stroke="#ff2893" stroke-width="1.000" x1="3.065" x2="18.065" y1="54.197" y2="28.216" fill="none" />
	<line x1="18.065" x2="3.065" y1="80.178" y2="54.197" fill="none" stroke="#ff2893" stroke-width="1.000" />
	<line fill="none" stroke="#ff28ff" stroke-width="1.000" x1="9.538" x2="-5.462" y1="20.435" y2="-5.546" />
	<line y2="20.435" fill="none" stroke="#ff28ff" stroke-width="1.000" x1="-5.462" x2="9.538" y1="46.416" />
	<line stroke-width="1.000" x1="-20.462" x2="-5.462" y1="20.435" y2="46.416" fill="none" stroke="#ff28ff" />
	<line x1="21.305" x2="6.305" y1="28.030" y2="2.049" fill="none" stroke="#9328ff" stroke-width="1.000" />
	<line fill="none" stroke="#9328ff" stroke-width="1.000" x1="6.305" x2="21.305" y1="54.011" y2="28.030" />
	<line stroke-width="1.000" x1="-23.695" x2="6.305" y1="54.011" y2="54.011" fill="none" stroke="#9328ff" />
	<line x1="16.569" x2="1.569" y1="22.463" y2="-3.518" fill="none" stroke="#2828ff" stroke-width="1.000" />
	<line stroke="#2828ff" stroke-width="1.000" x1="1.569" x2="16.569" y1="48.444" y2="22.463" fill="none" />
	<line y1="74.424" y2="48.444" fill="none" stroke="#2828ff" stroke-width="1.000" x1="-13.431" x2="1.569" />
	<line x1="-34.366" x2="-4.366" y1="6.617" y2="6.617" fill="none" stroke="#2893ff" stroke-width="1.000" />
	<line x2="-34.366" y1="32.598" y2="6.617" fill="none" stroke="#2893ff" stroke-width="1.000" x1="-19.366" />
	<line y2="32.598" fill="none" stroke="#2893ff" stroke-width="1.000" x1="10.634" x2="-19.366" y1="32.598" />
	<line y1="-2.603" y2="-2.603" fill="none" stroke="#28ffff" stroke-width="1.000" x1="-28.442" x2="1.558" />
	<line x2="-28.442" y1="23.378" y2="-2.603" fill="none" stroke="#28ffff" stroke-width="1.000" x1="-13.442" />
	<line stroke="#28ffff" stroke-width="1.000" x1="1.558" x2="-13.442" y1="49.359" y2="23.378" fill="none" />
	<line fill="none" stroke="#28ff93" stroke-width="1.000" x1="-30.257" x2="-0.257" y1="-0.269" y2="-0.269" />
	<line stroke-width="1.000" x1="-15.257" x2="-30.257" y1="25.711" y2="-0.269" fill="none" stroke="#28ff93" />
	<line y1="25.711" y2="25.711" fill="none" stroke="#28ff93" stroke-width="1.000" x1="-45.257" x2="-15.257" />
	<line x1="-22.254" x2="7.746" y1="4.501" y2="4.501" fill="none" stroke="#28ff28" stroke-width="1.000" />
	<line stroke="#28ff28" stroke-width="1.000" x1="-7.254" x2="-22.254" y1="30.482" y2="4.501" fill="none" />
	<line x2="-7.254" y1="56.462" y2="30.482" fill="none" stroke="#28ff28" stroke-width="1.000" x1="-22.254" />
	<line x1="-26.973" x2="3.027" y1="-4.135" y2="-4.135" fill="none" stroke="#93ff28" stroke-width="1.000" />
	<line y2="-4.135" fill="none" stroke="#93ff28" stroke-width="1.000" x1="-41.973" x2="-26.973" y1="-30.115" />
	<line stroke-width="1.000" x1="-56.973" x2="-41.973" y1="-56.096" y2="-30.115" fill="none" stroke="#93ff28" />
	<line x1="-30.809" x2="-0.809" y1="5.203" y2="5.203" fill="none" stroke="#ffff28" stroke-width="1.000" />
	<line stroke="#ffff28" stroke-width="1.000" x1="-45.809" x2="-30.809" y1="-20.777" y2="5.203" fill="none" />
	<line stroke-width="1.000" x1="-75.809" x2="-45.809" y1="-20.777" y2="-20.777" fill="none" stroke="#ffff28" />
	<line fill="none" stroke="#ff9328" stroke-width="1.000" x1="-33.429" x2="-3.429" y1="-2.749" y2="-2.749" />
	<line x1="-48.429" x2="-33.429" y1="-28.729" y2="-2.749" fill="none" stroke="#ff9328" stroke-width="1.000" />
	<line x1="-63.429" x2="-48.429" y1="-2.749" y2="-28.729" fill="none" stroke="#ff9328" stroke-width="1.000" />
	<line stroke-width="1.000" x1="-31.846" x2="-1.846" y1="5.326" y2="5.326" fill="none" stroke="#ff9393" />
	<line x1="-61.846" x2="-31.846" y1="5.326" y2="5.326" fill="none" stroke="#ff9393" stroke-width="1.000" />
	<line y2="5.326" fill="none" stroke="#ff9393" stroke-width="1.000" x1="-46.846" x2="-61.846" y1="31.307" />
	<line x2="0.206" y1="-0.666" y2="-0.666" fill="none" stroke="#ff93c9" stroke-width="1.000" x1="-29.794" />
	<line y2="-0.666" fill="none" stroke="#ff93c9" stroke-width="1.000" x1="-59.794" x2="-29.794" y1="-0.666" />
	<line y1="-26.647" y2="-0.666" fill="none" stroke="#ff93c9" stroke-width="1.000" x1="-74.794" x2="-59.794" />
	<line stroke-width="1.000" x1="-30.032" x2="-0.032" y1="0.777" y2="0.777" fill="none" stroke="#ff93ff" />
	<line x2="-30.032" y1="0.777" y2="0.777" fill="none" stroke="#ff93ff" stroke-width="1.000" x1="-60.032" />
	<line x2="-60.032" y1="0.777" y2="0.777" fill="none" stroke="#ff93ff" stroke-width="1.000" x1="-90.032" />
	<line stroke="#c993ff" stroke-width="1.000" x1="-30.159" x2="-0.159" y1="-0.396" y2="-0.396" fill="none" />
	<line stroke="#c993ff" stroke-width="1.000" x1="-60.159" x2="-30.159" y1="-0.396" y2="-0.396" fill="none" />
	<line y1="25.585" y2="-0.396" fill="none" stroke="#c993ff" stroke-width="1.000" x1="-75.159" x2="-60.159" />
	<line x1="-28.195" x2="1.805" y1="4.155" y2="4.155" fill="none" stroke="#9393ff" stroke-width="1.000" />
	<line x2="-28.195" y1="30.136" y2="4.155" fill="none" stroke="#9393ff" stroke-width="1.000" x1="-43.195" />
	<line stroke="#9393ff" stroke-width="1.000" x1="-13.195" x2="-43.195" y1="30.136" y2="30.136" fill="none" />
	<line stroke="#93c9ff" stroke-width="1.000" x1="-33.592" x2="-3.592" y1="-0.403" y2="-0.403" fill="none" />
	<line x1="-48.592" x2="-33.592" y1="25.578" y2="-0.403" fill="none" stroke="#93c9ff" stroke-width="1.000" />
	<line x1="-33.592" x2="-48.592" y1="51.559" y2="25.578" fill="none" stroke="#93c9ff" stroke-width="1.000" />
	<line y2="4.665" fill="none" stroke="#93ffff" stroke-width="1.000" x1="-28.908" x2="1.092" y1="4.665" />
	<line y1="30.645" y2="4.665" fill="none" stroke="#93ffff" stroke-width="1.000" x1="-43.908" x2="-28.908" />
	<line y2="30.645" fill="none" stroke="#93ffff" stroke-width="1.000" x1="-58.908" x2="-43.908" y1="4.665" />
	<line x2="-3.325" y1="-3.829" y2="-3.829" fill="none" stroke="#93ffc9" stroke-width="1.000" x1="-33.325" />
	<line y1="22.152" y2="-3.829" fill="none" stroke="#93ffc9" stroke-width="1.000" x1="-48.325" x2="-33.325" />
	<line x1="-78.325" x2="-48.325" y1="22.152" y2="22.152" fill="none" stroke="#93ffc9" stroke-width="1.000" />
	<line fill="none" stroke="#93ff93" stroke-width="1.000" x1="-29.930" x2="0.070" y1="0.121" y2="0.121" />
	<line y2="0.121" fill="none" stroke="#93ff93" stroke-width="1.000" x1="-44.930" x2="-29.930" y1="26.102" />
	<line stroke="#93ff93" stroke-width="1.000" x1="-59.930" x2="-44.930" y1="52.083" y2="26.102" fill="none" />
	<line stroke="#c9ff93" stroke-width="1.000" x1="-22.890" x2="-7.890" y1="27.750" y2="1.769" fill="none" />
	<line stroke-width="1.000" x1="7.110" x2="-22.890" y1="27.750" y2="27.750" fill="none" stroke="#c9ff93" />
	<line x2="7.110" y1="27.750" y2="27.750" fill="none" stroke="#c9ff93" stroke-width="1.000" x1="37.110" />
	<line stroke-width="1.000" x1="-14.596" x2="0.404" y1="26.615" y2="0.634" fill="none" stroke="#ffff93" />
	<line stroke="#ffff93" stroke-width="1.000" x1="15.404" x2="-14.596" y1="26.615" y2="26.615" fill="none" />
	<line x1="30.404" x2="15.404" y1="52.596" y2="26.615" fill="none" stroke="#ffff93" stroke-width="1.000" />
	<line x1="-16.882" x2="-1.882" y1="21.506" y2="-4.475" fill="none" stroke="#ffc993" stroke-width="1.000" />
	<line stroke="#ffc993" stroke-width="1.000" x1="13.118" x2="-16.882" y1="21.506" y2="21.506" fill="none" />
	<line stroke="#ffc993" stroke-width="1.000" x1="-1.882" x2="13.118" y1="47.486" y2="21.506" fill="none" />
	<line x2="3.090" y1="28.647" y2="2.667" fill="none" stroke="#ff2828" stroke-width="1.000" x1="-11.910" />
	<line y2="28.647" fill="none" stroke="#ff2828" stroke-width="1.000" x1="3.090" x2="-11.910" y1="54.628" />
	<line x2="3.090" y1="28.647" y2="54.628" fill="none" stroke="#ff2828" stroke-width="1.000" x1="18.090" />
	<line y2="-1.041" fill="none" stroke="#ff2893" stroke-width="1.000" x1="-19.156" x2="-4.156" y1="24.940" />
	<line y1="50.921" y2="24.940" fill="none" stroke="#ff2893" stroke-width="1.000" x1="-4.156" x2="-19.156" />
	<line stroke-width="1.000" x1="25.844" x2="-4.156" y1="50.921" y2="50.921" fill="none" stroke="#ff2893" />
	<line stroke-width="1.000" x1="-15.202" x2="-0.202" y1="26.322" y2="0.342" fill="none" stroke="#ff28ff" />
	<line x2="-15.202" y1="52.303" y2="26.322" fill="none" stroke="#ff28ff" stroke-width="1.000" x1="-0.202" />
	<line x1="14.798" x2="-0.202" y1="78.284" y2="52.303" fill="none" stroke="#ff28ff" stroke-width="1.000" />
	<line stroke-width="1.000" x1="-18.024" x2="-3.024" y1="27.185" y2="1.204" fill="none" stroke="#9328ff" />
	<line x1="-3.024" x2="-18.024" y1="53.165" y2="27.185" fill="none" stroke="#9328ff" stroke-width="1.000" />
	<line x1="-33.024" x2="-3.024" y1="53.165" y2="53.165" fill="none" stroke="#9328ff" stroke-width="1.000" />
	<line x2="2.421" y1="29.691" y2="3.710" fill="none" stroke="#2828ff" stroke-width="1.000" x1="-12.579" />
	<line y2="29.691" fill="none" stroke="#2828ff" stroke-width="1.000" x1="2.421" x2="-12.579" y1="55.672" />
	<line x1="-12.579" x2="2.421" y1="81.653" y2="55.672" fill="none" stroke="#2828ff" stroke-width="1.000" />
	<line stroke-width="1.000" x1="-18.451" x2="-3.451" y1="23.809" y2="-2.172" fill="none" stroke="#2893ff" />
	<line y2="23.809" fill="none" stroke="#2893ff" stroke-width="1.000" x1="-33.451" x2="-18.451" y1="-2.172" />
	<line y1="-2.172" y2="-2.172" fill="none" stroke="#2893ff" stroke-width="1.000" x1="-63.451" x2="-33.451" />
	<line x1="-11.679" x2="3.321" y1="27.500" y2="1.519" fill="none" stroke="#28ffff" stroke-width="1.000" />
	<line x1="-26.679" x2="-11.679" y1="1.519" y2="27.500" fill="none" stroke="#28ffff" stroke-width="1.000" />
	<line stroke-width="1.000" x1="-41.679" x2="-26.679" y1="27.500" y2="1.519" fill="none" stroke="#28ffff" />
	<line y2="-7.564" fill="none" stroke="#28ff93" stroke-width="1.000" x1="-10.893" x2="4.107" y1="18.417" />
	<line y2="18.417" fill="none" stroke="#28ff93" stroke-width="1.000" x1="-40.893" x2="-10.893" y1="18.417" />
	<line y2="18.417" fill="none" stroke="#28ff93" stroke-width="1.000" x1="-25.893" x2="-40.893" y1="44.398" />
	<line y2="-0.176" fill="none" stroke="#28ff28" stroke-width="1.000" x1="-16.401" x2="-1.401" y1="25.804" />
	<line fill="none" stroke="#28ff28" stroke-width="1.000" x1="-46.401" x2="-16.401" y1="25.804" y2="25.804" />
	<line x1="-61.401" x2="-46.401" y1="-0.176" y2="25.804" fill="none" stroke="#28ff28" stroke-width="1.000" />
	<line fill="none" stroke="#93ff28" stroke-width="1.000" x1="-9.832" x2="5.168" y1="27.809" y2="1.828" />
	<line x1="-39.832" x2="-9.832" y1="27.809" y2="27.809" fill="none" stroke="#93ff28" stroke-width="1.000" />
	<line y2="27.809" fill="none" stroke="#93ff28" stroke-width="1.000" x1="-69.832" x2="-39.832" y1="27.809" />
	<line fill="none" stroke="#ffff28" stroke-width="1.000" x1="-19.660" x2="-4.660" y1="26.644" y2="0.663" />
	<line fill="none" stroke="#ffff28" stroke-width="1.000" x1="-49.660" x2="-19.660" y1="26.644" y2="26.644" />
	<line x1="-64.660" x2="-49.660" y1="52.625" y2="26.644" fill="none" stroke="#ffff28" stroke-width="1.000" />
	<line stroke="#ff9328" stroke-width="1.000" x1="-14.010" x2="0.990" y1="21.162" y2="-4.818" fill="none" />
	<line stroke-width="1.000" x1="-29.010" x2="-14.010" y1="47.143" y2="21.162" fill="none" stroke="#ff9328" />
	<line x1="0.990" x2="-29.010" y1="47.143" y2="47.143" fill="none" stroke="#ff9328" stroke-width="1.000" />
	<line fill="none" stroke="#ff9393" stroke-width="1.000" x1="-12.042" x2="2.958" y1="25.396" y2="-0.585" />
	<line stroke="#ff9393" stroke-width="1.000" x1="-27.042" x2="-12.042" y1="51.377" y2="25.396" fill="none" />
	<line x1="-12.042" x2="-27.042" y1="77.358" y2="51.377" fill="none" stroke="#ff9393" stroke-width="1.000" />
	<line fill="none" stroke="#ff93c9" stroke-width="1.000" x1="-21.675" x2="-6.675" y1="27.616" y2="1.635" />
	<line x2="-21.675" y1="53.596" y2="27.616" fill="none" stroke="#ff93c9" stroke-width="1.000" x1="-36.675" />
	<line x1="-51.675" x2="-36.675" y1="27.616" y2="53.596" fill="none" stroke="#ff93c9" stroke-width="1.000" />
	<line fill="none" stroke="#ff93ff" stroke-width="1.000" x1="-13.180" x2="1.820" y1="20.232" y2="-5.748" />
	<line x1="-28.180" x2="-13.180" y1="46.213" y2="20.232" fill="none" stroke="#ff93ff" stroke-width="1.000" />
	<line x1="-58.180" x2="-28.180" y1="46.213" y2="46.213" fill="none" stroke="#ff93ff" stroke-width="1.000" />
	<line fill="none" stroke="#c993ff" stroke-width="1.000" x1="-10.175" x2="4.825" y1="24.540" y2="-1.441" />
	<line y2="24.540" fill="none" stroke="#c993ff" stroke-width="1.000" x1="-25.175" x2="-10.175" y1="50.521" />
	<line stroke-width="1.000" x1="-40.175" x2="-25.175" y1="76.501" y2="50.521" fill="none" stroke="#c993ff" />
	<circle cy="-3.829" r="2.000" fill="#93ffc9" cx="-33.325" />
	<circle cy="26.005" r="2.000" fill="#ff9393" cx="44.942" />
	<circle cx="45.169" cy="25.878" r="2.000" fill="#9393ff" />
	<circle r="2.000" fill="#c9ff93" cx="-22.890" cy="27.750" />
	<circle cx="37.110" cy="27.750" r="2.000" fill="#c9ff93" />
	<circle cx="-25.893" cy="44.398" r="2.000" fill="#28ff93" />
	<circle r="2.000" fill="#ffc993" cx="-2.095" cy="3.238" />
	<circle fill="#93ff28" cx="-26.973" cy="-4.135" r="2.000" />
	<circle cx="0.206" cy="-0.666" r="2.000" fill="#ff93c9" />
	<circle r="2.000" fill="#ff9393" cx="59.942" cy="0.024" />
	<circle cx="-30.159" cy="-0.396" r="2.000" fill="#c993ff" />
	<circle r="2.000" fill="#ff93c9" cx="-51.675" cy="27.616" />
	<circle cx="-26.679" cy="1.519" r="2.000" fill="#28ffff" />
	<circle fill="#c993ff" cx="46.410" cy="33.880" r="2.000" />
	<circle cx="-34.366" cy="6.617" r="2.000" fill="#2893ff" />
	<circle cx="1.092" cy="4.665" r="2.000" fill="#93ffff" />
	<circle cy="28.647" r="2.000" fill="#ff2828" cx="18.090" />
	<circle r="2.000" fill="#ff2893" cx="25.844" cy="50.921" />
	<circle cx="-12.579" cy="29.691" r="2.000" fill="#2828ff" />
	<circle cx="16.181" cy="27.837" r="2.000" fill="#ff93ff" />
	<circle cx="4.872" cy="-5.854" r="2.000" fill="#93ff93" />
	<circle cx="-5.462" cy="46.416" r="2.000" fill="#ff28ff" />
	<circle cy="-4.135" r="2.000" fill="#93ff28" cx="3.027" />
	<circle r="2.000" fill="#ff28ff" cx="-15.202" cy="26.322" />
	<circle cx="1.410" cy="7.900" r="2.000" fill="#c993ff" />
	<circle cy="46.107" r="2.000" fill="#93ff93" cx="34.872" />
	<circle cx="-1.637" cy="58.171" r="2.000" fill="#c9ff93" />
	<circle cy="56.859" r="2.000" fill="#93ffc9" cx="4.185" />
	<circle cx="-4.366" cy="6.617" r="2.000" fill="#2893ff" />
	<circle r="10.000" fill="#ffffff" stroke="#665782" stroke-width="2.000" cx="30.000" cy="0.000" />
	<text font-family="Super Sans" font-size="8.00" fill="#000000" x="30.000" y="3.500" text-anchor="middle" >
		132
	</text>
	<circle fill="#9393ff" cx="1.805" cy="4.155" r="2.000" />
	<circle cx="6.305" cy="2.049" r="2.000" fill="#9328ff" />
	<circle cx="5.168" cy="1.828" r="2.000" fill="#93ff28" />
	<circle cy="47.143" r="2.000" fill="#ff9328" cx="0.990" />
	<circle cx="2.958" cy="-0.585" r="2.000" fill="#ff9393" />
	<circle cx="180.000" cy="-51.962" r="10.000" fill="#ffffff" stroke="#665782" stroke-width="2.000" />
	<text font-size="8.00" fill="#000000" x="180.000" y="-48.462" text-anchor="middle" font-family="Super Sans" >
		122
	</text>
	<circle cx="13.443" cy="27.098" r="2.000" fill="#ff2828" />
	<circle cx="-46.401" cy="25.804" r="2.000" fill="#28ff28" />
	<circle cy="5.203" r="2.000" fill="#ffff28" cx="-0.809" />
	<circle cy="26.005" r="2.000" fill="#ff9393" cx="14.942" />
	<circle cx="-90.032" cy="0.777" r="2.000" fill="#ff93ff" />
	<circle cx="-60.159" cy="-0.396" r="2.000" fill="#c993ff" />
	<circle cx="0.404" cy="0.634" r="2.000" fill="#ffff93" />
	<circle r="2.000" fill="#28ffff" cx="-28.442" cy="-2.603" />
	<circle stroke-width="2.000" cx="75.000" cy="-77.942" r="10.000" fill="#ffffff" stroke="#665782" />
	<text y="-74.442" text-anchor="middle" font-family="Super Sans" font-size="8.00" fill="#000000" x="75.000" >
		97
	</text>
	<circle cx="19.767" cy="18.672" r="2.000" fill="#ffff93" />
	<circle cx="-10.233" cy="18.672" r="2.000" fill="#ffff93" />
	<circle cx="1.820" cy="-5.748" r="2.000" fill="#ff93ff" />
	<circle cx="19.872" cy="20.126" r="2.000" fill="#93ff93" />
	<circle cx="4.767" cy="-7.309" r="2.000" fill="#ffff93" />
	<circle cx="-32.095" cy="55.199" r="2.000" fill="#ffc993" />
	<circle cx="-63.429" cy="-2.749" r="2.000" fill="#ff9328" />
	<circle cx="-9.832" cy="27.809" r="2.000" fill="#93ff28" />
	<circle cx="-4.156" cy="50.921" r="2.000" fill="#ff2893" />
	<circle cx="-39.832" cy="27.809" r="2.000" fill="#93ff28" />
	<circle cx="-1.557" cy="1.117" r="2.000" fill="#ff2828" />
	<circle cx="-13.431" cy="74.424" r="2.000" fill="#2828ff" />
	<circle cx="7.746" cy="4.501" r="2.000" fill="#28ff28" />
	<circle cx="-33.429" cy="-2.749" r="2.000" fill="#ff9328" />
	<circle cy="-0.666" r="2.000" fill="#ff93c9" cx="-59.794" />
	<circle cx="-78.325" cy="22.152" r="2.000" fill="#93ffc9" />
	<circle cx="150.000" cy="-51.962" r="10.000" fill="#ffffff" stroke="#665782" stroke-width="2.000" />
	<text fill="#000000" x="150.000" y="-48.462" text-anchor="middle" font-family="Super Sans" font-size="8.00" >
		123
	</text>
	<circle r="2.000" fill="#93c9ff" cx="-33.592" cy="-0.403" />
	<circle r="2.000" fill="#28ff93" cx="4.107" cy="-7.564" />
	<circle cx="14.659" cy="22.955" r="2.000" fill="#ff93c9" />
	<circle cx="0.169" cy="-0.103" r="2.000" fill="#9393ff" />
	<circle r="2.000" fill="#93ffff" cx="17.727" cy="24.122" />
	<circle cx="12.905" cy="29.219" r="2.000" fill="#ffc993" />
	<circle cx="1.558" cy="-2.603" r="2.000" fill="#28ffff" />
	<circle cx="-1.846" cy="5.326" r="2.000" fill="#ff9393" />
	<circle cy="23.464" r="2.000" fill="#93c9ff" cx="11.796" />
	<circle cy="49.445" r="2.000" fill="#93c9ff" cx="56.796" />
	<circle cx="-0.257" cy="-0.269" r="2.000" fill="#28ff93" />
	<circle cx="0.070" cy="0.121" r="2.000" fill="#93ff93" />
	<circle cx="74.659" cy="22.955" r="2.000" fill="#ff93c9" />
	<circle cx="-13.195" cy="30.136" r="2.000" fill="#9393ff" />
	<circle r="2.000" fill="#28ffff" cx="3.321" cy="1.519" />
	<circle r="2.000" fill="#ff28ff" cx="9.538" cy="20.435" />
	<circle r="2.000" fill="#9393ff" cx="-28.195" cy="4.155" />
	<circle cx="-3.592" cy="-0.403" r="2.000" fill="#93c9ff" />
	<circle cx="-69.832" cy="27.809" r="2.000" fill="#93ff28" />
	<circle cx="-10.175" cy="24.540" r="2.000" fill="#c993ff" />
	<circle cx="-12.579" cy="81.653" r="2.000" fill="#2828ff" />
	<circle cx="-18.451" cy="23.809" r="2.000" fill="#2893ff" />
	<circle r="10.000" fill="#ffffff" stroke="#665782" stroke-width="2.000" cx="120.000" cy="-51.962" />
	<text font-family="Super Sans" font-size="8.00" fill="#000000" x="120.000" y="-48.462" text-anchor="middle" >
		124
	</text>
	<circle cx="-0.341" cy="-3.026" r="2.000" fill="#ff93c9" />
	<circle cy="-20.777" r="2.000" fill="#ffff28" cx="-45.809" />
	<circle cx="-3.024" cy="1.204" r="2.000" fill="#9328ff" />
	<circle cx="-6.675" cy="1.635" r="2.000" fill="#ff93c9" />
	<circle r="2.000" fill="#ff28ff" cx="-20.462" cy="20.435" />
	<circle cx="-45.257" cy="25.711" r="2.000" fill="#28ff93" />
	<circle cx="-36.675" cy="53.596" r="2.000" fill="#ff93c9" />
	<circle r="2.000" fill="#93ffc9" cx="4.185" cy="4.897" />
	<circle cx="-23.695" cy="54.011" r="2.000" fill="#9328ff" />
	<circle fill="#28ff28" cx="-7.254" cy="30.482" r="2.000" />
	<circle r="2.000" fill="#93ff93" cx="-44.930" cy="26.102" />
	<circle fill="#ff9393" cx="-27.042" cy="51.377" r="2.000" />
	<circle cx="21.305" cy="28.030" r="2.000" fill="#9328ff" />
	<circle cy="48.444" r="2.000" fill="#2828ff" cx="1.569" />
	<circle cy="30.878" r="2.000" fill="#93ffc9" cx="19.185" />
	<circle cx="-0.202" cy="52.303" r="2.000" fill="#ff28ff" />
	<circle r="2.000" fill="#28ffff" cx="-41.679" cy="27.500" />
	<circle cx="-4.660" cy="0.663" r="2.000" fill="#ffff28" />
	<circle r="10.000" fill="#ffffff" stroke="#665782" stroke-width="2.000" cx="165.000" cy="-77.942" />
	<text x="165.000" y="-74.442" text-anchor="middle" font-family="Super Sans" font-size="8.00" fill="#000000" >
		120
	</text>
	<circle cy="0.777" r="2.000" fill="#ff93ff" cx="-30.032" />
	<circle cx="-18.024" cy="27.185" r="2.000" fill="#9328ff" />
	<circle fill="#ffffff" stroke="#665782" stroke-width="2.000" cx="90.000" cy="-51.962" r="10.000" />
	<text text-anchor="middle" font-family="Super Sans" font-size="8.00" fill="#000000" x="90.000" y="-48.462" >
		125
	</text>
	<circle cx="-16.637" cy="32.190" r="2.000" fill="#c9ff93" />
	<circle cy="3.710" r="2.000" fill="#2828ff" cx="2.421" />
	<circle cy="18.417" r="2.000" fill="#28ff93" cx="-10.893" />
	<circle cx="18.065" cy="80.178" r="2.000" fill="#ff2893" />
	<circle cx="-29.930" cy="0.121" r="2.000" fill="#93ff93" />
	<circle cy="53.165" r="2.000" fill="#9328ff" cx="-33.024" />
	<circle stroke-width="2.000" cx="105.000" cy="-77.942" r="10.000" fill="#ffffff" stroke="#665782" />
	<text font-family="Super Sans" font-size="8.00" fill="#000000" x="105.000" y="-74.442" text-anchor="middle" >
		108
	</text>
	<circle cx="1.181" cy="1.856" r="2.000" fill="#ff93ff" />
	<circle cx="13.363" cy="32.190" r="2.000" fill="#c9ff93" />
	<circle cx="-5.462" cy="-5.546" r="2.000" fill="#ff28ff" />
	<circle cx="10.634" cy="32.598" r="2.000" fill="#2893ff" />
	<circle cx="-30.809" cy="5.203" r="2.000" fill="#ffff28" />
	<circle cy="25.396" r="2.000" fill="#ff9393" cx="-12.042" />
	<circle cx="-1.637" cy="6.209" r="2.000" fill="#c9ff93" />
	<circle r="2.000" fill="#ff2828" cx="28.443" cy="53.079" />
	<circle fill="#28ff93" cx="-15.257" cy="25.711" r="2.000" />
	<circle cx="-63.451" cy="-2.172" r="2.000" fill="#2893ff" />
	<circle fill="#28ff28" cx="-1.401" cy="-0.176" r="2.000" />
	<circle fill="#ffffff" stroke="#665782" stroke-width="2.000" cx="135.000" cy="-77.942" r="10.000" />
	<text y="-74.442" text-anchor="middle" font-family="Super Sans" font-size="8.00" fill="#000000" x="135.000" >
		109
	</text>
	<circle cx="44.659" cy="22.955" r="2.000" fill="#ff93c9" />
	<circle cx="32.727" cy="50.103" r="2.000" fill="#93ffff" />
	<circle cy="76.083" r="2.000" fill="#93ffff" cx="47.727" />
	<circle r="2.000" fill="#ff93c9" cx="-74.794" cy="-26.647" />
	<circle cx="-48.325" cy="22.152" r="2.000" fill="#93ffc9" />
	<circle r="10.000" fill="#ffffff" stroke="#b8ed8e" stroke-width="2.000" cx="0.000" cy="0.000" />
	<text text-anchor="middle" font-family="Super Sans" font-size="8.00" fill="#000000" x="0.000" y="3.500" >
		1
	</text>
	<circle r="2.000" fill="#ffc993" cx="-17.095" cy="29.219" />
	<circle cx="-58.180" cy="46.213" r="2.000" fill="#ff93ff" />
	<circle cx="-40.175" cy="76.501" r="2.000" fill="#c993ff" />
	<circle cx="-61.846" cy="5.326" r="2.000" fill="#ff9393" />
	<circle fill="#c9ff93" cx="-7.890" cy="1.769" r="2.000" />
	<circle cx="-19.156" cy="24.940" r="2.000" fill="#ff2893" />
	<circle cx="-61.401" cy="-0.176" r="2.000" fill="#28ff28" />
	<circle cx="4.825" cy="-1.441" r="2.000" fill="#c993ff" />
	<circle cx="-40.893" cy="18.417" r="2.000" fill="#28ff93" />
	<circle cx="18.065" cy="28.216" r="2.000" fill="#ff2893" />
	<circle cx="-14.010" cy="21.162" r="2.000" fill="#ff9328" />
	<circle fill="#93c9ff" cx="26.796" cy="49.445" r="2.000" />
	<circle fill="#ff93ff" cx="-0.032" cy="0.777" r="2.000" />
	<circle cx="3.090" cy="54.628" r="2.000" fill="#ff2828" />
	<circle fill="#ff9393" cx="-12.042" cy="77.358" r="2.000" />
	<circle cx="-29.794" cy="-0.666" r="2.000" fill="#ff93c9" />
	<circle r="2.000" fill="#c9ff93" cx="7.110" cy="27.750" />
	<circle cx="-11.910" cy="28.647" r="2.000" fill="#ff2828" />
	<circle cx="-33.451" cy="-2.172" r="2.000" fill="#2893ff" />
	<circle cx="0.990" cy="-4.818" r="2.000" fill="#ff9328" />
	<circle cx="-64.660" cy="52.625" r="2.000" fill="#ffff28" />
	<circle cx="-29.010" cy="47.143" r="2.000" fill="#ff9328" />
	<circle cx="-0.058" cy="0.024" r="2.000" fill="#ff9393" />
	<circle cx="-41.973" cy="-30.115" r="2.000" fill="#93ff28" />
	<circle cx="-28.908" cy="4.665" r="2.000" fill="#93ffff" />
	<circle cx="-1.882" cy="-4.475" r="2.000" fill="#ffc993" />
	<circle fill="#ffc993" cx="13.118" cy="21.506" r="2.000" />
	<circle cx="-3.024" cy="53.165" r="2.000" fill="#9328ff" />
	<circle stroke="#665782" stroke-width="2.000" cx="60.000" cy="-51.962" r="10.000" fill="#ffffff" />
	<text x="60.000" y="-48.462" text-anchor="middle" font-family="Super Sans" font-size="8.00" fill="#000000" >
		126
	</text>
	<circle cx="-56.973" cy="-56.096" r="2.000" fill="#93ff28" />
	<circle r="2.000" fill="#c993ff" cx="31.410" cy="59.861" />
	<circle cx="3.065" cy="54.197" r="2.000" fill="#ff2893" />
	<circle cx="16.569" cy="22.463" r="2.000" fill="#2828ff" />
	<circle cx="-75.809" cy="-20.777" r="2.000" fill="#ffff28" />
	<circle r="2.000" fill="#ff28ff" cx="-0.202" cy="0.342" />
	<circle fill="#ffff28" cx="-19.660" cy="26.644" r="2.000" />
	<circle cx="46.181" cy="27.837" r="2.000" fill="#ff93ff" />
	<circle r="2.000" fill="#28ffff" cx="-13.442" cy="23.378" />
	<circle fill="#c993ff" cx="-0.159" cy="-0.396" r="2.000" />
	<circle cx="-16.882" cy="21.506" r="2.000" fill="#ffc993" />
	<circle cx="1.558" cy="49.359" r="2.000" fill="#28ffff" />
	<circle cx="3.090" cy="2.667" r="2.000" fill="#ff2828" />
	<circle cx="-4.156" cy="-1.041" r="2.000" fill="#ff2893" />
	<circle fill="#2828ff" cx="2.421" cy="55.672" r="2.000" />
	<circle cx="-43.908" cy="30.645" r="2.000" fill="#93ffff" />
	<circle cx="30.404" cy="52.596" r="2.000" fill="#ffff93" />
	<circle fill="#28ff28" cx="-16.401" cy="25.804" r="2.000" />
	<circle fill="#ff93ff" cx="-13.180" cy="20.232" r="2.000" />
	<circle cx="-75.159" cy="25.585" r="2.000" fill="#c993ff" />
	<circle cx="-21.675" cy="27.616" r="2.000" fill="#ff93c9" />
	<circle r="2.000" fill="#ff93ff" cx="61.181" cy="53.817" />
	<circle cx="16.410" cy="33.880" r="2.000" fill="#c993ff" />
	<circle fill="#93ffff" cx="2.727" cy="-1.859" r="2.000" />
	<circle cx="-33.592" cy="51.559" r="2.000" fill="#93c9ff" />
	<circle fill="#ffff93" cx="15.404" cy="26.615" r="2.000" />
	<circle cx="-48.429" cy="-28.729" r="2.000" fill="#ff9328" />
	<circle fill="#ff9393" cx="-46.846" cy="31.307" r="2.000" />
	<circle fill="#9393ff" cx="-43.195" cy="30.136" r="2.000" />
	<circle cy="26.615" r="2.000" fill="#ffff93" cx="-14.596" />
	<circle fill="#9393ff" cx="30.169" cy="51.858" r="2.000" />
	<circle fill="#93c9ff" cx="-3.204" cy="-2.517" r="2.000" />
	<circle cx="-1.557" cy="53.079" r="2.000" fill="#ff2828" />
	<circle r="10.000" fill="#ffffff" stroke="#665782" stroke-width="2.000" cx="75.000" cy="-25.981" />
	<text font-size="8.00" fill="#000000" x="75.000" y="-22.481" text-anchor="middle" font-family="Super Sans" >
		127
	</text>
	<circle cx="-11.679" cy="27.500" r="2.000" fill="#28ffff" />
	<circle cy="-25.981" r="10.000" fill="#ffffff" stroke="#665782" stroke-width="2.000" cx="45.000" />
	<text x="45.000" y="-22.481" text-anchor="middle" font-family="Super Sans" font-size="8.00" fill="#000000" >
		129
	</text>
	<circle fill="#2828ff" cx="1.569" cy="-3.518" r="2.000" />
	<circle cy="56.462" r="2.000" fill="#28ff28" cx="-22.254" />
	<circle cx="-3.451" cy="-2.172" r="2.000" fill="#2893ff" />
	<circle cx="-25.175" cy="50.521" r="2.000" fill="#c993ff" />
	<circle cx="-48.592" cy="25.578" r="2.000" fill="#93c9ff" />
	<circle cx="60.000" cy="0.000" r="10.000" fill="#ffffff" stroke="#665782" stroke-width="2.000" />
	<text fill="#000000" x="60.000" y="3.500" text-anchor="middle" font-family="Super Sans" font-size="8.00" >
		128
	</text>
	<circle cx="19.872" cy="72.088" r="2.000" fill="#93ff93" />
	<circle cx="-19.366" cy="32.598" r="2.000" fill="#2893ff" />
	<circle r="2.000" fill="#ffff28" cx="-49.660" cy="26.644" />
	<circle cx="-0.139" cy="0.020" r="2.000" fill="#9393ff" />
	<circle stroke="#665782" stroke-width="2.000" cx="30.000" cy="-51.962" r="10.000" fill="#ffffff" />
	<text x="30.000" y="-48.462" text-anchor="middle" font-family="Super Sans" font-size="8.00" fill="#000000" >
		130
	</text>
	<circle cx="15.169" cy="25.878" r="2.000" fill="#9393ff" />
	<circle cx="-40.233" cy="18.672" r="2.000" fill="#ffff93" />
	<circle cx="3.065" cy="2.235" r="2.000" fill="#ff2893" />
	<circle cx="6.305" cy="54.011" r="2.000" fill="#9328ff" />
	<circle cx="-1.882" cy="47.486" r="2.000" fill="#ffc993" />
	<circle r="10.000" fill="#ffffff" stroke="#665782" stroke-width="2.000" cx="15.000" cy="-25.981" />
	<text x="15.000" y="-22.481" text-anchor="middle" font-family="Super Sans" font-size="8.00" fill="#000000" >
		131
	</text>
	<circle cx="-22.254" cy="4.501" r="2.000" fill="#28ff28" />
	<circle fill="#ff9393" cx="-31.846" cy="5.326" r="2.000" />
	<circle cx="-58.908" cy="4.665" r="2.000" fill="#93ffff" />
	<circle cx="-28.180" cy="46.213" r="2.000" fill="#ff93ff" />
	<circle cx="34.185" cy="56.859" r="2.000" fill="#93ffc9" />
	<circle cx="-60.032" cy="0.777" r="2.000" fill="#ff93ff" />
	<circle cy="-3.829" r="2.000" fill="#93ffc9" cx="-3.325" />
	<circle cx="14.798" cy="78.284" r="2.000" fill="#ff28ff" />
	<circle r="2.000" fill="#28ff93" cx="-30.257" cy="-0.269" />
	<circle cx="-3.429" cy="-2.749" r="2.000" fill="#ff9328" />
	<circle cx="-59.930" cy="52.083" r="2.000" fill="#93ff93" />
</svg>
